<?xml version="1.0" encoding="UTF-8"?>
<svg width="700" height="192" viewBox="0 0 700 192" fill="none" xmlns="http://www.w3.org/2000/svg" role="img" aria-label="Languages">
  <style>
    .lang { font: 600 14px 'Segoe UI', Ubuntu, Sans-Serif; fill: #e5e9f0; }
    .percent { font: 600 13px 'Segoe UI', Ubuntu, Sans-Serif; fill: #7aa2f7; text-anchor: end; }
    .bytes { font: 400 13px 'Segoe UI', Ubuntu, Sans-Serif; fill: #9aa5ce; text-anchor: end; }
  </style>

  <rect x="0.5" y="0.5" width="699" height="191" rx="16" fill="#1a1b27" stroke="#2f334d"/>
  
  <circle cx="24" cy="25" r="4" fill="hsl(243 70% 60%)" />
  <text x="38" y="28" class="lang">C++</text>

  <rect x="172" y="20" width="384" height="8" rx="4" fill="#2b3250" />
  <rect x="172" y="20" width="384" height="8" rx="4" fill="hsl(243 70% 60%)" />

  <text x="574" y="28" class="percent">40.4%</text>
  <text x="666" y="28" class="bytes">316.3 KB</text>

  <circle cx="24" cy="49" r="4" fill="hsl(312 70% 60%)" />
  <text x="38" y="52" class="lang">C#</text>

  <rect x="172" y="44" width="384" height="8" rx="4" fill="#2b3250" />
  <rect x="172" y="44" width="312" height="8" rx="4" fill="hsl(312 70% 60%)" />

  <text x="574" y="52" class="percent">32.8%</text>
  <text x="666" y="52" class="bytes">256.7 KB</text>

  <circle cx="24" cy="73" r="4" fill="hsl(67 70% 60%)" />
  <text x="38" y="76" class="lang">C</text>

  <rect x="172" y="68" width="384" height="8" rx="4" fill="#2b3250" />
  <rect x="172" y="68" width="232" height="8" rx="4" fill="hsl(67 70% 60%)" />

  <text x="574" y="76" class="percent">24.4%</text>
  <text x="666" y="76" class="bytes">191.1 KB</text>

  <circle cx="24" cy="97" r="4" fill="hsl(314 70% 60%)" />
  <text x="38" y="100" class="lang">Makefile</text>

  <rect x="172" y="92" width="384" height="8" rx="4" fill="#2b3250" />
  <rect x="172" y="92" width="13" height="8" rx="4" fill="hsl(314 70% 60%)" />

  <text x="574" y="100" class="percent">1.4%</text>
  <text x="666" y="100" class="bytes">11.0 KB</text>

  <circle cx="24" cy="121" r="4" fill="hsl(83 70% 60%)" />
  <text x="38" y="124" class="lang">CSS</text>

  <rect x="172" y="116" width="384" height="8" rx="4" fill="#2b3250" />
  <rect x="172" y="116" width="5" height="8" rx="4" fill="hsl(83 70% 60%)" />

  <text x="574" y="124" class="percent">0.5%</text>
  <text x="666" y="124" class="bytes">4.0 KB</text>

  <circle cx="24" cy="145" r="4" fill="hsl(256 70% 60%)" />
  <text x="38" y="148" class="lang">SCSS</text>

  <rect x="172" y="140" width="384" height="8" rx="4" fill="#2b3250" />
  <rect x="172" y="140" width="4" height="8" rx="4" fill="hsl(256 70% 60%)" />

  <text x="574" y="148" class="percent">0.4%</text>
  <text x="666" y="148" class="bytes">3.2 KB</text>

  <circle cx="24" cy="169" r="4" fill="hsl(99 70% 60%)" />
  <text x="38" y="172" class="lang">HTML</text>

  <rect x="172" y="164" width="384" height="8" rx="4" fill="#2b3250" />
  <rect x="172" y="164" width="4" height="8" rx="4" fill="hsl(99 70% 60%)" />

  <text x="574" y="172" class="percent">0.1%</text>
  <text x="666" y="172" class="bytes">768 B</text>

</svg>