<?xml version="1.0" encoding="UTF-8"?>
<svg width="760" height="312" viewBox="0 0 760 312" fill="none" xmlns="http://www.w3.org/2000/svg" role="img" aria-label="All languages across repositories">
  <style>
    .title { font: 700 24px 'Segoe UI', Ubuntu, Sans-Serif; fill: #c0caf5; }
    .sub { font: 400 13px 'Segoe UI', Ubuntu, Sans-Serif; fill: #8b9bb4; }
    .lang { font: 600 14px 'Segoe UI', Ubuntu, Sans-Serif; fill: #e5e9f0; }
    .percent { font: 600 13px 'Segoe UI', Ubuntu, Sans-Serif; fill: #7aa2f7; }
    .bytes { font: 400 13px 'Segoe UI', Ubuntu, Sans-Serif; fill: #9aa5ce; }
  </style>

  <rect x="0.5" y="0.5" width="759" height="311" rx="18" fill="#1a1b27" stroke="#2f334d"/>
  <text x="24" y="36" class="title">All languages</text>
  <text x="24" y="58" class="sub">Public repositories scanned: 5</text>
  <text x="24" y="76" class="sub">Source: GitHub /languages endpoint · Generated: 2026-04-18 12:58:03 UTC</text>

  
  <circle cx="32" cy="90" r="5" fill="hsl(243 70% 60%)" />
  <text x="46" y="94" class="lang">C++</text>

  <rect x="250" y="82" width="220" height="10" rx="5" fill="#2b3250" />
  <rect x="250" y="82" width="220" height="10" rx="5" fill="hsl(243 70% 60%)" />

  <text x="490" y="94" class="percent">40.4%</text>
  <text x="565" y="94" class="bytes">316.3 KB</text>

  <circle cx="32" cy="118" r="5" fill="hsl(312 70% 60%)" />
  <text x="46" y="122" class="lang">C#</text>

  <rect x="250" y="110" width="220" height="10" rx="5" fill="#2b3250" />
  <rect x="250" y="110" width="179" height="10" rx="5" fill="hsl(312 70% 60%)" />

  <text x="490" y="122" class="percent">32.8%</text>
  <text x="565" y="122" class="bytes">256.7 KB</text>

  <circle cx="32" cy="146" r="5" fill="hsl(67 70% 60%)" />
  <text x="46" y="150" class="lang">C</text>

  <rect x="250" y="138" width="220" height="10" rx="5" fill="#2b3250" />
  <rect x="250" y="138" width="133" height="10" rx="5" fill="hsl(67 70% 60%)" />

  <text x="490" y="150" class="percent">24.4%</text>
  <text x="565" y="150" class="bytes">191.1 KB</text>

  <circle cx="32" cy="174" r="5" fill="hsl(314 70% 60%)" />
  <text x="46" y="178" class="lang">Makefile</text>

  <rect x="250" y="166" width="220" height="10" rx="5" fill="#2b3250" />
  <rect x="250" y="166" width="8" height="10" rx="5" fill="hsl(314 70% 60%)" />

  <text x="490" y="178" class="percent">1.4%</text>
  <text x="565" y="178" class="bytes">11.0 KB</text>

  <circle cx="32" cy="202" r="5" fill="hsl(83 70% 60%)" />
  <text x="46" y="206" class="lang">CSS</text>

  <rect x="250" y="194" width="220" height="10" rx="5" fill="#2b3250" />
  <rect x="250" y="194" width="6" height="10" rx="5" fill="hsl(83 70% 60%)" />

  <text x="490" y="206" class="percent">0.5%</text>
  <text x="565" y="206" class="bytes">4.0 KB</text>

  <circle cx="32" cy="230" r="5" fill="hsl(256 70% 60%)" />
  <text x="46" y="234" class="lang">SCSS</text>

  <rect x="250" y="222" width="220" height="10" rx="5" fill="#2b3250" />
  <rect x="250" y="222" width="6" height="10" rx="5" fill="hsl(256 70% 60%)" />

  <text x="490" y="234" class="percent">0.4%</text>
  <text x="565" y="234" class="bytes">3.2 KB</text>

  <circle cx="32" cy="258" r="5" fill="hsl(99 70% 60%)" />
  <text x="46" y="262" class="lang">HTML</text>

  <rect x="250" y="250" width="220" height="10" rx="5" fill="#2b3250" />
  <rect x="250" y="250" width="6" height="10" rx="5" fill="hsl(99 70% 60%)" />

  <text x="490" y="262" class="percent">0.1%</text>
  <text x="565" y="262" class="bytes">768 B</text>

</svg>